<?xml version="1.0" encoding="UTF-8"?><svg id="uuid-9022a260-498c-4c5c-b4e9-00041be8d01f" xmlns="http://www.w3.org/2000/svg" xmlns:xlink="http://www.w3.org/1999/xlink" viewBox="0 0 22.33 22.19"><defs><clipPath id="uuid-102c64e1-ff18-4566-a928-c12af1d4ba7b"><rect width="22.33" height="22.19" style="fill:none;"/></clipPath></defs><g style="clip-path:url(#uuid-102c64e1-ff18-4566-a928-c12af1d4ba7b);"><path d="M22.33,11.1c0,2.2-.02,3.73-.07,4.58-.1,2-.7,3.55-1.8,4.65-1.1,1.1-2.67,1.7-4.68,1.79-.85.05-2.39.07-4.61.07s-3.75-.03-4.6-.07c-2.02-.1-3.58-.69-4.68-1.79-1.1-1.1-1.71-2.65-1.8-4.65-.05-.85-.07-2.38-.07-4.58s.03-3.73.07-4.58c.1-2,.7-3.55,1.8-4.65C2.98.77,4.54.17,6.56.07,7.41.03,8.95,0,11.16,0s3.76.03,4.61.07c2.02.1,3.58.69,4.68,1.79,1.1,1.1,1.71,2.65,1.8,4.65.05.85.07,2.38.07,4.58M11.16,1.99c-.07,0-.44,0-1.11,0-.68,0-1.19,0-1.54,0-.35,0-.81.02-1.4.04-.59.02-1.09.07-1.5.15-.41.07-.76.16-1.04.26-.49.2-.91.47-1.28.84-.37.37-.65.79-.84,1.27-.11.28-.2.62-.27,1.03-.07.41-.12.9-.15,1.49-.02.58-.04,1.05-.04,1.4,0,.35,0,.85,0,1.52,0,.67,0,1.04,0,1.11s0,.44,0,1.11c0,.67,0,1.18,0,1.52,0,.35.02.81.04,1.4.03.58.07,1.08.15,1.49.07.41.16.75.27,1.03.19.48.48.91.84,1.27.37.37.79.64,1.28.84.28.1.63.19,1.04.26.41.07.91.12,1.5.15.59.02,1.05.04,1.4.05.35,0,.86,0,1.54,0,.67,0,1.04,0,1.11,0,.07,0,.44,0,1.11,0,.68,0,1.19,0,1.53,0,.35,0,.82-.02,1.4-.05.59-.02,1.08-.07,1.5-.15.41-.07.76-.16,1.04-.26.49-.2.91-.47,1.28-.84.37-.37.65-.79.84-1.27.11-.28.19-.62.27-1.03.07-.41.12-.91.15-1.49.02-.58.04-1.05.04-1.4,0-.34,0-.85,0-1.52,0-.67,0-1.04,0-1.11s0-.44,0-1.11c0-.67,0-1.18,0-1.52,0-.35-.02-.81-.04-1.4-.03-.58-.07-1.08-.15-1.49-.07-.41-.16-.75-.27-1.03-.19-.48-.47-.91-.84-1.27-.37-.37-.8-.64-1.28-.84-.28-.1-.63-.19-1.04-.26-.41-.07-.91-.12-1.5-.15-.59-.02-1.05-.04-1.4-.04-.35,0-.86,0-1.53,0-.67,0-1.04,0-1.11,0M18.46,5.17c0,.37-.13.68-.39.94-.26.26-.58.39-.95.39s-.68-.13-.95-.39c-.26-.26-.39-.57-.39-.94s.13-.68.39-.94c.26-.26.58-.39.95-.39s.68.13.95.39c.26.26.39.57.39.94M16.89,11.1c0,1.58-.56,2.92-1.67,4.03-1.11,1.11-2.47,1.66-4.06,1.66s-2.94-.55-4.05-1.66c-1.12-1.11-1.67-2.45-1.67-4.03s.56-2.92,1.67-4.03c1.11-1.11,2.47-1.66,4.05-1.66s2.94.55,4.06,1.66c1.12,1.11,1.67,2.45,1.67,4.03M14.89,11.1c0-1.02-.36-1.89-1.09-2.61-.73-.72-1.6-1.08-2.63-1.08s-1.9.36-2.63,1.08c-.73.72-1.09,1.59-1.09,2.61s.36,1.89,1.09,2.61c.73.72,1.6,1.08,2.63,1.08s1.91-.36,2.63-1.08c.73-.72,1.09-1.59,1.09-2.61"/></g></svg>
