<?xml version="1.0" encoding="UTF-8"?><svg id="uuid-2a6ddf6d-bca5-474e-ae24-da17be75102c" xmlns="http://www.w3.org/2000/svg" viewBox="0 0 16.67 19.08"><path d="M8.19,10.56l-.61-.96L2.59,1.75h2.14l4.03,6.35.61.96,5.25,8.27h-2.14l-4.29-6.76ZM.55.59l1.16,1.83,5.15,8.1.61.96,4.13,6.51.32.51h4.75l-1.16-1.83-5.41-8.52-.61-.96L5.62,1.09l-.32-.51H.55Z"/><polygon points="6.74 10.58 0 19.08 1.46 19.08 7.39 11.6 8.16 10.63 7.51 9.6 6.74 10.58" style="fill:#fff;"/><polygon points="15.13 0 13.88 1.57 9.55 7.03 8.78 8 9.43 9.03 10.2 8.06 16.59 0 15.13 0" style="fill:#fff;"/></svg>
